%FSLAX42Y42*%
%MOMM*%
G71*
G01*
G75*
G04 Layer_Color=2752767*
%ADD10C,0.25*%
%ADD11C,2.00*%
%ADD12R,5.00X5.00*%
%ADD13C,3.00*%
%ADD14R,3.00X3.00*%
%ADD15C,3.50*%
%ADD16R,3.50X3.50*%
%ADD17C,2.00*%
%ADD18R,2.00X2.00*%
%ADD19R,2.00X1.60*%
%ADD20O,2.00X1.60*%
%ADD21R,2.00X2.00*%
%ADD22C,1.00*%
%ADD23C,0.60*%
%ADD24C,0.70*%
%ADD25C,0.80*%
%ADD26C,2.50*%
%ADD27R,0.95X1.00*%
%ADD28R,1.65X1.15*%
%ADD29C,0.25*%
%ADD30C,0.15*%
%ADD31C,0.15*%
%ADD32C,0.30*%
%ADD33R,5.20X5.20*%
%ADD34C,3.20*%
%ADD35R,3.20X3.20*%
%ADD36C,3.70*%
%ADD37R,3.70X3.70*%
%ADD38C,2.20*%
%ADD39R,2.20X2.20*%
%ADD40R,2.20X1.80*%
%ADD41O,2.20X1.80*%
%ADD42R,2.20X2.20*%
%ADD43C,0.08*%
%ADD44C,0.38*%
%ADD45C,0.41*%
D10*
X6892Y-2285D02*
Y-2133D01*
X6969D01*
X6994Y-2158D01*
Y-2209D01*
X6969Y-2234D01*
X6892D01*
X6943D02*
X6994Y-2285D01*
X7070D02*
X7121D01*
X7146Y-2260D01*
Y-2209D01*
X7121Y-2183D01*
X7070D01*
X7045Y-2209D01*
Y-2260D01*
X7070Y-2285D01*
X7197Y-2183D02*
Y-2260D01*
X7223Y-2285D01*
X7299D01*
Y-2183D01*
X7349Y-2285D02*
Y-2183D01*
X7426D01*
X7451Y-2209D01*
Y-2285D01*
X7603Y-2133D02*
Y-2285D01*
X7527D01*
X7502Y-2260D01*
Y-2209D01*
X7527Y-2183D01*
X7603D01*
X6892Y-2666D02*
Y-2514D01*
X6969D01*
X6994Y-2539D01*
Y-2590D01*
X6969Y-2615D01*
X6892D01*
X6943D02*
X6994Y-2666D01*
X7070D02*
X7121D01*
X7146Y-2641D01*
Y-2590D01*
X7121Y-2564D01*
X7070D01*
X7045Y-2590D01*
Y-2641D01*
X7070Y-2666D01*
X7197Y-2564D02*
Y-2641D01*
X7223Y-2666D01*
X7299D01*
Y-2564D01*
X7349Y-2666D02*
Y-2564D01*
X7426D01*
X7451Y-2590D01*
Y-2666D01*
X7603Y-2514D02*
Y-2666D01*
X7527D01*
X7502Y-2641D01*
Y-2590D01*
X7527Y-2564D01*
X7603D01*
X6892Y-3047D02*
Y-2895D01*
X6969D01*
X6994Y-2920D01*
Y-2971D01*
X6969Y-2996D01*
X6892D01*
X6943D02*
X6994Y-3047D01*
X7070D02*
X7121D01*
X7146Y-3022D01*
Y-2971D01*
X7121Y-2945D01*
X7070D01*
X7045Y-2971D01*
Y-3022D01*
X7070Y-3047D01*
X7197Y-2945D02*
Y-3022D01*
X7223Y-3047D01*
X7299D01*
Y-2945D01*
X7349Y-3047D02*
Y-2945D01*
X7426D01*
X7451Y-2971D01*
Y-3047D01*
X7603Y-2895D02*
Y-3047D01*
X7527D01*
X7502Y-3022D01*
Y-2971D01*
X7527Y-2945D01*
X7603D01*
X6892Y-3428D02*
Y-3276D01*
X6969D01*
X6994Y-3301D01*
Y-3352D01*
X6969Y-3377D01*
X6892D01*
X6943D02*
X6994Y-3428D01*
X7070D02*
X7121D01*
X7146Y-3403D01*
Y-3352D01*
X7121Y-3326D01*
X7070D01*
X7045Y-3352D01*
Y-3403D01*
X7070Y-3428D01*
X7197Y-3326D02*
Y-3403D01*
X7223Y-3428D01*
X7299D01*
Y-3326D01*
X7349Y-3428D02*
Y-3326D01*
X7426D01*
X7451Y-3352D01*
Y-3428D01*
X7603Y-3276D02*
Y-3428D01*
X7527D01*
X7502Y-3403D01*
Y-3352D01*
X7527Y-3326D01*
X7603D01*
X6892Y-3809D02*
Y-3657D01*
X6969D01*
X6994Y-3682D01*
Y-3733D01*
X6969Y-3758D01*
X6892D01*
X6943D02*
X6994Y-3809D01*
X7070D02*
X7121D01*
X7146Y-3784D01*
Y-3733D01*
X7121Y-3707D01*
X7070D01*
X7045Y-3733D01*
Y-3784D01*
X7070Y-3809D01*
X7197Y-3707D02*
Y-3784D01*
X7223Y-3809D01*
X7299D01*
Y-3707D01*
X7349Y-3809D02*
Y-3707D01*
X7426D01*
X7451Y-3733D01*
Y-3809D01*
X7603Y-3657D02*
Y-3809D01*
X7527D01*
X7502Y-3784D01*
Y-3733D01*
X7527Y-3707D01*
X7603D01*
X5608Y-2285D02*
Y-2133D01*
X5684D01*
X5709Y-2158D01*
Y-2209D01*
X5684Y-2234D01*
X5608D01*
X5760Y-2133D02*
X5861D01*
X5811D01*
Y-2285D01*
X5912Y-2133D02*
Y-2285D01*
Y-2209D01*
X6014D01*
Y-2133D01*
Y-2285D01*
X5608Y-2666D02*
Y-2514D01*
X5684D01*
X5709Y-2539D01*
Y-2590D01*
X5684Y-2615D01*
X5608D01*
X5760Y-2514D02*
X5861D01*
X5811D01*
Y-2666D01*
X5912Y-2514D02*
Y-2666D01*
Y-2590D01*
X6014D01*
Y-2514D01*
Y-2666D01*
X5608Y-3047D02*
Y-2895D01*
X5684D01*
X5709Y-2920D01*
Y-2971D01*
X5684Y-2996D01*
X5608D01*
X5760Y-2895D02*
X5861D01*
X5811D01*
Y-3047D01*
X5912Y-2895D02*
Y-3047D01*
Y-2971D01*
X6014D01*
Y-2895D01*
Y-3047D01*
X5608Y-3428D02*
Y-3276D01*
X5684D01*
X5709Y-3301D01*
Y-3352D01*
X5684Y-3377D01*
X5608D01*
X5760Y-3276D02*
X5861D01*
X5811D01*
Y-3428D01*
X5912Y-3276D02*
Y-3428D01*
Y-3352D01*
X6014D01*
Y-3276D01*
Y-3428D01*
X5608Y-3809D02*
Y-3657D01*
X5684D01*
X5709Y-3682D01*
Y-3733D01*
X5684Y-3758D01*
X5608D01*
X5760Y-3657D02*
X5861D01*
X5811D01*
Y-3809D01*
X5912Y-3657D02*
Y-3809D01*
Y-3733D01*
X6014D01*
Y-3657D01*
Y-3809D01*
X2190Y-2158D02*
X2215Y-2133D01*
X2266D01*
X2291Y-2158D01*
Y-2183D01*
X2266Y-2209D01*
X2240D01*
X2266D01*
X2291Y-2234D01*
Y-2260D01*
X2266Y-2285D01*
X2215D01*
X2190Y-2260D01*
X2342Y-2285D02*
Y-2260D01*
X2367D01*
Y-2285D01*
X2342D01*
X2469Y-2158D02*
X2494Y-2133D01*
X2545D01*
X2571Y-2158D01*
Y-2260D01*
X2545Y-2285D01*
X2494D01*
X2469Y-2260D01*
Y-2158D01*
X2621D02*
X2647Y-2133D01*
X2698D01*
X2723Y-2158D01*
Y-2260D01*
X2698Y-2285D01*
X2647D01*
X2621Y-2260D01*
Y-2158D01*
X2774D02*
X2799Y-2133D01*
X2850D01*
X2875Y-2158D01*
Y-2260D01*
X2850Y-2285D01*
X2799D01*
X2774Y-2260D01*
Y-2158D01*
X2926Y-2285D02*
Y-2183D01*
X2951D01*
X2977Y-2209D01*
Y-2285D01*
Y-2209D01*
X3002Y-2183D01*
X3028Y-2209D01*
Y-2285D01*
X3078D02*
Y-2183D01*
X3104D01*
X3129Y-2209D01*
Y-2285D01*
Y-2209D01*
X3155Y-2183D01*
X3180Y-2209D01*
Y-2285D01*
X3434D02*
X3383Y-2234D01*
Y-2183D01*
X3434Y-2133D01*
X3510Y-2285D02*
X3561D01*
X3535D01*
Y-2133D01*
X3510Y-2158D01*
X3637Y-2285D02*
X3688D01*
X3662D01*
Y-2133D01*
X3637Y-2158D01*
X3764D02*
X3789Y-2133D01*
X3840D01*
X3866Y-2158D01*
Y-2183D01*
X3840Y-2209D01*
X3866Y-2234D01*
Y-2260D01*
X3840Y-2285D01*
X3789D01*
X3764Y-2260D01*
Y-2234D01*
X3789Y-2209D01*
X3764Y-2183D01*
Y-2158D01*
X3789Y-2209D02*
X3840D01*
X3916Y-2285D02*
Y-2260D01*
X3942D01*
Y-2285D01*
X3916D01*
X4043D02*
X4094D01*
X4069D01*
Y-2133D01*
X4043Y-2158D01*
X4170Y-2285D02*
X4221D01*
X4196D01*
Y-2133D01*
X4170Y-2158D01*
X4297Y-2285D02*
Y-2183D01*
X4323D01*
X4348Y-2209D01*
Y-2285D01*
Y-2209D01*
X4373Y-2183D01*
X4399Y-2209D01*
Y-2285D01*
X4450D02*
X4500D01*
X4475D01*
Y-2183D01*
X4450D01*
X4576Y-2285D02*
X4627D01*
X4602D01*
Y-2133D01*
X4576D01*
X4703Y-2285D02*
X4754Y-2234D01*
Y-2183D01*
X4703Y-2133D01*
X2190Y-2539D02*
X2215Y-2514D01*
X2266D01*
X2291Y-2539D01*
Y-2641D01*
X2266Y-2666D01*
X2215D01*
X2190Y-2641D01*
Y-2539D01*
X2342Y-2666D02*
Y-2641D01*
X2367D01*
Y-2666D01*
X2342D01*
X2469Y-2539D02*
X2494Y-2514D01*
X2545D01*
X2571Y-2539D01*
Y-2564D01*
X2545Y-2590D01*
X2571Y-2615D01*
Y-2641D01*
X2545Y-2666D01*
X2494D01*
X2469Y-2641D01*
Y-2615D01*
X2494Y-2590D01*
X2469Y-2564D01*
Y-2539D01*
X2494Y-2590D02*
X2545D01*
X2621Y-2539D02*
X2647Y-2514D01*
X2698D01*
X2723Y-2539D01*
Y-2641D01*
X2698Y-2666D01*
X2647D01*
X2621Y-2641D01*
Y-2539D01*
X2774D02*
X2799Y-2514D01*
X2850D01*
X2875Y-2539D01*
Y-2641D01*
X2850Y-2666D01*
X2799D01*
X2774Y-2641D01*
Y-2539D01*
X2926Y-2666D02*
Y-2564D01*
X2951D01*
X2977Y-2590D01*
Y-2666D01*
Y-2590D01*
X3002Y-2564D01*
X3028Y-2590D01*
Y-2666D01*
X3078D02*
Y-2564D01*
X3104D01*
X3129Y-2590D01*
Y-2666D01*
Y-2590D01*
X3155Y-2564D01*
X3180Y-2590D01*
Y-2666D01*
X3434D02*
X3383Y-2615D01*
Y-2564D01*
X3434Y-2514D01*
X3510Y-2539D02*
X3535Y-2514D01*
X3586D01*
X3612Y-2539D01*
Y-2564D01*
X3586Y-2590D01*
X3561D01*
X3586D01*
X3612Y-2615D01*
Y-2641D01*
X3586Y-2666D01*
X3535D01*
X3510Y-2641D01*
X3662Y-2666D02*
X3713D01*
X3688D01*
Y-2514D01*
X3662Y-2539D01*
X3789Y-2666D02*
Y-2641D01*
X3815D01*
Y-2666D01*
X3789D01*
X4018Y-2514D02*
X3916D01*
Y-2590D01*
X3967Y-2564D01*
X3992D01*
X4018Y-2590D01*
Y-2641D01*
X3992Y-2666D01*
X3942D01*
X3916Y-2641D01*
X4069Y-2539D02*
X4094Y-2514D01*
X4145D01*
X4170Y-2539D01*
Y-2641D01*
X4145Y-2666D01*
X4094D01*
X4069Y-2641D01*
Y-2539D01*
X4221Y-2666D02*
Y-2564D01*
X4246D01*
X4272Y-2590D01*
Y-2666D01*
Y-2590D01*
X4297Y-2564D01*
X4323Y-2590D01*
Y-2666D01*
X4373D02*
X4424D01*
X4399D01*
Y-2564D01*
X4373D01*
X4500Y-2666D02*
X4551D01*
X4526D01*
Y-2514D01*
X4500D01*
X4627Y-2666D02*
X4678Y-2615D01*
Y-2564D01*
X4627Y-2514D01*
X2190Y-3047D02*
X2240D01*
X2215D01*
Y-2895D01*
X2190Y-2920D01*
X2317Y-3047D02*
Y-3022D01*
X2342D01*
Y-3047D01*
X2317D01*
X2545Y-2895D02*
X2444D01*
Y-2971D01*
X2494Y-2945D01*
X2520D01*
X2545Y-2971D01*
Y-3022D01*
X2520Y-3047D01*
X2469D01*
X2444Y-3022D01*
X2596Y-2920D02*
X2621Y-2895D01*
X2672D01*
X2698Y-2920D01*
Y-3022D01*
X2672Y-3047D01*
X2621D01*
X2596Y-3022D01*
Y-2920D01*
X2748D02*
X2774Y-2895D01*
X2824D01*
X2850Y-2920D01*
Y-3022D01*
X2824Y-3047D01*
X2774D01*
X2748Y-3022D01*
Y-2920D01*
X2901Y-3047D02*
Y-2945D01*
X2926D01*
X2951Y-2971D01*
Y-3047D01*
Y-2971D01*
X2977Y-2945D01*
X3002Y-2971D01*
Y-3047D01*
X3053D02*
Y-2945D01*
X3078D01*
X3104Y-2971D01*
Y-3047D01*
Y-2971D01*
X3129Y-2945D01*
X3155Y-2971D01*
Y-3047D01*
X3408D02*
X3358Y-2996D01*
Y-2945D01*
X3408Y-2895D01*
X3586D02*
X3485D01*
Y-2971D01*
X3535Y-2945D01*
X3561D01*
X3586Y-2971D01*
Y-3022D01*
X3561Y-3047D01*
X3510D01*
X3485Y-3022D01*
X3637D02*
X3662Y-3047D01*
X3713D01*
X3739Y-3022D01*
Y-2920D01*
X3713Y-2895D01*
X3662D01*
X3637Y-2920D01*
Y-2945D01*
X3662Y-2971D01*
X3739D01*
X3789Y-3047D02*
Y-3022D01*
X3815D01*
Y-3047D01*
X3789D01*
X3916Y-2920D02*
X3942Y-2895D01*
X3992D01*
X4018Y-2920D01*
Y-3022D01*
X3992Y-3047D01*
X3942D01*
X3916Y-3022D01*
Y-2920D01*
X4170Y-2895D02*
X4119Y-2920D01*
X4069Y-2971D01*
Y-3022D01*
X4094Y-3047D01*
X4145D01*
X4170Y-3022D01*
Y-2996D01*
X4145Y-2971D01*
X4069D01*
X4221Y-3047D02*
Y-2945D01*
X4246D01*
X4272Y-2971D01*
Y-3047D01*
Y-2971D01*
X4297Y-2945D01*
X4323Y-2971D01*
Y-3047D01*
X4373D02*
X4424D01*
X4399D01*
Y-2945D01*
X4373D01*
X4500Y-3047D02*
X4551D01*
X4526D01*
Y-2895D01*
X4500D01*
X4627Y-3047D02*
X4678Y-2996D01*
Y-2945D01*
X4627Y-2895D01*
X2190Y-3428D02*
X2240D01*
X2215D01*
Y-3276D01*
X2190Y-3301D01*
X2317Y-3428D02*
Y-3403D01*
X2342D01*
Y-3428D01*
X2317D01*
X2545Y-3276D02*
X2494Y-3301D01*
X2444Y-3352D01*
Y-3403D01*
X2469Y-3428D01*
X2520D01*
X2545Y-3403D01*
Y-3377D01*
X2520Y-3352D01*
X2444D01*
X2596Y-3301D02*
X2621Y-3276D01*
X2672D01*
X2698Y-3301D01*
Y-3403D01*
X2672Y-3428D01*
X2621D01*
X2596Y-3403D01*
Y-3301D01*
X2748D02*
X2774Y-3276D01*
X2824D01*
X2850Y-3301D01*
Y-3403D01*
X2824Y-3428D01*
X2774D01*
X2748Y-3403D01*
Y-3301D01*
X2901Y-3428D02*
Y-3326D01*
X2926D01*
X2951Y-3352D01*
Y-3428D01*
Y-3352D01*
X2977Y-3326D01*
X3002Y-3352D01*
Y-3428D01*
X3053D02*
Y-3326D01*
X3078D01*
X3104Y-3352D01*
Y-3428D01*
Y-3352D01*
X3129Y-3326D01*
X3155Y-3352D01*
Y-3428D01*
X3408D02*
X3358Y-3377D01*
Y-3326D01*
X3408Y-3276D01*
X3586D02*
X3535Y-3301D01*
X3485Y-3352D01*
Y-3403D01*
X3510Y-3428D01*
X3561D01*
X3586Y-3403D01*
Y-3377D01*
X3561Y-3352D01*
X3485D01*
X3739Y-3428D02*
X3637D01*
X3739Y-3326D01*
Y-3301D01*
X3713Y-3276D01*
X3662D01*
X3637Y-3301D01*
X3789Y-3428D02*
Y-3403D01*
X3815D01*
Y-3428D01*
X3789D01*
X3916Y-3403D02*
X3942Y-3428D01*
X3992D01*
X4018Y-3403D01*
Y-3301D01*
X3992Y-3276D01*
X3942D01*
X3916Y-3301D01*
Y-3326D01*
X3942Y-3352D01*
X4018D01*
X4069Y-3403D02*
X4094Y-3428D01*
X4145D01*
X4170Y-3403D01*
Y-3301D01*
X4145Y-3276D01*
X4094D01*
X4069Y-3301D01*
Y-3326D01*
X4094Y-3352D01*
X4170D01*
X4221Y-3428D02*
Y-3326D01*
X4246D01*
X4272Y-3352D01*
Y-3428D01*
Y-3352D01*
X4297Y-3326D01*
X4323Y-3352D01*
Y-3428D01*
X4373D02*
X4424D01*
X4399D01*
Y-3326D01*
X4373D01*
X4500Y-3428D02*
X4551D01*
X4526D01*
Y-3276D01*
X4500D01*
X4627Y-3428D02*
X4678Y-3377D01*
Y-3326D01*
X4627Y-3276D01*
X2190Y-3809D02*
X2240D01*
X2215D01*
Y-3657D01*
X2190Y-3682D01*
X2317Y-3809D02*
Y-3784D01*
X2342D01*
Y-3809D01*
X2317D01*
X2444Y-3682D02*
X2469Y-3657D01*
X2520D01*
X2545Y-3682D01*
Y-3784D01*
X2520Y-3809D01*
X2469D01*
X2444Y-3784D01*
Y-3682D01*
X2596D02*
X2621Y-3657D01*
X2672D01*
X2698Y-3682D01*
Y-3784D01*
X2672Y-3809D01*
X2621D01*
X2596Y-3784D01*
Y-3682D01*
X2748D02*
X2774Y-3657D01*
X2824D01*
X2850Y-3682D01*
Y-3784D01*
X2824Y-3809D01*
X2774D01*
X2748Y-3784D01*
Y-3682D01*
X2901Y-3809D02*
Y-3707D01*
X2926D01*
X2951Y-3733D01*
Y-3809D01*
Y-3733D01*
X2977Y-3707D01*
X3002Y-3733D01*
Y-3809D01*
X3053D02*
Y-3707D01*
X3078D01*
X3104Y-3733D01*
Y-3809D01*
Y-3733D01*
X3129Y-3707D01*
X3155Y-3733D01*
Y-3809D01*
X3408D02*
X3358Y-3758D01*
Y-3707D01*
X3408Y-3657D01*
X3485Y-3682D02*
X3510Y-3657D01*
X3561D01*
X3586Y-3682D01*
Y-3707D01*
X3561Y-3733D01*
X3535D01*
X3561D01*
X3586Y-3758D01*
Y-3784D01*
X3561Y-3809D01*
X3510D01*
X3485Y-3784D01*
X3637D02*
X3662Y-3809D01*
X3713D01*
X3739Y-3784D01*
Y-3682D01*
X3713Y-3657D01*
X3662D01*
X3637Y-3682D01*
Y-3707D01*
X3662Y-3733D01*
X3739D01*
X3789Y-3809D02*
Y-3784D01*
X3815D01*
Y-3809D01*
X3789D01*
X3916Y-3682D02*
X3942Y-3657D01*
X3992D01*
X4018Y-3682D01*
Y-3707D01*
X3992Y-3733D01*
X3967D01*
X3992D01*
X4018Y-3758D01*
Y-3784D01*
X3992Y-3809D01*
X3942D01*
X3916Y-3784D01*
X4069Y-3657D02*
X4170D01*
Y-3682D01*
X4069Y-3784D01*
Y-3809D01*
X4221D02*
Y-3707D01*
X4246D01*
X4272Y-3733D01*
Y-3809D01*
Y-3733D01*
X4297Y-3707D01*
X4323Y-3733D01*
Y-3809D01*
X4373D02*
X4424D01*
X4399D01*
Y-3707D01*
X4373D01*
X4500Y-3809D02*
X4551D01*
X4526D01*
Y-3657D01*
X4500D01*
X4627Y-3809D02*
X4678Y-3758D01*
Y-3707D01*
X4627Y-3657D01*
X417Y-4165D02*
X443Y-4190D01*
X493D01*
X519Y-4165D01*
Y-4063D01*
X493Y-4038D01*
X443D01*
X417Y-4063D01*
Y-4088D01*
X443Y-4114D01*
X519D01*
X570Y-4063D02*
X595Y-4038D01*
X646D01*
X671Y-4063D01*
Y-4165D01*
X646Y-4190D01*
X595D01*
X570Y-4165D01*
Y-4063D01*
X874Y-4038D02*
X976D01*
X925D01*
Y-4190D01*
X1052D02*
X1103D01*
X1128Y-4165D01*
Y-4114D01*
X1103Y-4088D01*
X1052D01*
X1027Y-4114D01*
Y-4165D01*
X1052Y-4190D01*
X1204Y-4063D02*
Y-4088D01*
X1179D01*
X1230D01*
X1204D01*
Y-4165D01*
X1230Y-4190D01*
X1331Y-4088D02*
X1382D01*
X1407Y-4114D01*
Y-4190D01*
X1331D01*
X1306Y-4165D01*
X1331Y-4139D01*
X1407D01*
X1458Y-4190D02*
X1509D01*
X1484D01*
Y-4038D01*
X1458D01*
X493Y-2285D02*
Y-2133D01*
X417Y-2209D01*
X519D01*
X417Y-2539D02*
X443Y-2514D01*
X493D01*
X519Y-2539D01*
Y-2564D01*
X493Y-2590D01*
X519Y-2615D01*
Y-2641D01*
X493Y-2666D01*
X443D01*
X417Y-2641D01*
Y-2615D01*
X443Y-2590D01*
X417Y-2564D01*
Y-2539D01*
X443Y-2590D02*
X493D01*
X519Y-3047D02*
X417D01*
X519Y-2945D01*
Y-2920D01*
X493Y-2895D01*
X443D01*
X417Y-2920D01*
X570D02*
X595Y-2895D01*
X646D01*
X671Y-2920D01*
Y-3022D01*
X646Y-3047D01*
X595D01*
X570Y-3022D01*
Y-2920D01*
X519Y-3428D02*
X417D01*
X519Y-3326D01*
Y-3301D01*
X493Y-3276D01*
X443D01*
X417Y-3301D01*
X570D02*
X595Y-3276D01*
X646D01*
X671Y-3301D01*
Y-3403D01*
X646Y-3428D01*
X595D01*
X570Y-3403D01*
Y-3301D01*
X417Y-3682D02*
X443Y-3657D01*
X493D01*
X519Y-3682D01*
Y-3707D01*
X493Y-3733D01*
X468D01*
X493D01*
X519Y-3758D01*
Y-3784D01*
X493Y-3809D01*
X443D01*
X417Y-3784D01*
X570Y-3682D02*
X595Y-3657D01*
X646D01*
X671Y-3682D01*
Y-3707D01*
X646Y-3733D01*
X671Y-3758D01*
Y-3784D01*
X646Y-3809D01*
X595D01*
X570Y-3784D01*
Y-3758D01*
X595Y-3733D01*
X570Y-3707D01*
Y-3682D01*
X595Y-3733D02*
X646D01*
D43*
X-796Y-2983D02*
G03*
X-796Y-2983I-63J0D01*
G01*
X6107Y6493D02*
G03*
X6107Y6493I-42J0D01*
G01*
X5599D02*
G03*
X5599Y6493I-42J0D01*
G01*
X6615D02*
G03*
X6615Y6493I-42J0D01*
G01*
X1535D02*
G03*
X1535Y6493I-42J0D01*
G01*
X1027D02*
G03*
X1027Y6493I-42J0D01*
G01*
X2043D02*
G03*
X2043Y6493I-42J0D01*
G01*
X2397Y710D02*
G03*
X2397Y710I-42J0D01*
G01*
X1889D02*
G03*
X1889Y710I-42J0D01*
G01*
X2905D02*
G03*
X2905Y710I-42J0D01*
G01*
X3413D02*
G03*
X3413Y710I-42J0D01*
G01*
X3921D02*
G03*
X3921Y710I-42J0D01*
G01*
X4429D02*
G03*
X4429Y710I-42J0D01*
G01*
X4937D02*
G03*
X4937Y710I-42J0D01*
G01*
X5445D02*
G03*
X5445Y710I-42J0D01*
G01*
X3059Y6493D02*
G03*
X3059Y6493I-42J0D01*
G01*
X2551D02*
G03*
X2551Y6493I-42J0D01*
G01*
X3567D02*
G03*
X3567Y6493I-42J0D01*
G01*
X4583D02*
G03*
X4583Y6493I-42J0D01*
G01*
X4075D02*
G03*
X4075Y6493I-42J0D01*
G01*
X5091D02*
G03*
X5091Y6493I-42J0D01*
G01*
X-892Y-2253D02*
X-860Y-2285D01*
X-923Y-2253D02*
X-892D01*
X-923D02*
X-892Y-2222D01*
X-923Y-2190D02*
X-892Y-2222D01*
X-923Y-2190D02*
X-892D01*
X-860Y-2158D01*
X-828Y-2190D01*
X-796D01*
X-828Y-2222D02*
X-796Y-2190D01*
X-828Y-2222D02*
X-796Y-2253D01*
X-828D02*
X-796D01*
X-860Y-2285D02*
X-828Y-2253D01*
X-923Y-2666D02*
X-860Y-2634D01*
X-796Y-2666D01*
X-828Y-2602D02*
X-796Y-2666D01*
X-828Y-2602D02*
X-796Y-2539D01*
X-860Y-2571D02*
X-796Y-2539D01*
X-923D02*
X-860Y-2571D01*
X-923Y-2539D02*
X-892Y-2602D01*
X-923Y-2666D02*
X-892Y-2602D01*
X-860Y-3428D02*
X-796Y-3301D01*
X-923D02*
X-796D01*
X-923D02*
X-860Y-3428D01*
X-923Y-3809D02*
X-796D01*
Y-3682D01*
X-923D02*
X-796D01*
X-923Y-3809D02*
Y-3682D01*
X5325Y1813D02*
X5409D01*
Y1898D01*
X5325D02*
X5409D01*
X5325Y1813D02*
Y1898D01*
Y2067D02*
X5409D01*
Y2152D01*
X5325D02*
X5409D01*
X5325Y2067D02*
Y2152D01*
X795Y1813D02*
X879D01*
Y1898D01*
X795D02*
X879D01*
X795Y1813D02*
Y1898D01*
Y2067D02*
X879D01*
Y2152D01*
X795D02*
X879D01*
X795Y2067D02*
Y2152D01*
X1841Y2067D02*
X1925D01*
Y2152D01*
X1841D02*
X1925D01*
X1841Y2067D02*
Y2152D01*
Y1813D02*
X1925D01*
Y1898D01*
X1841D02*
X1925D01*
X1841Y1813D02*
Y1898D01*
X4861Y2067D02*
X4945D01*
Y2152D01*
X4861D02*
X4945D01*
X4861Y2067D02*
Y2152D01*
Y1813D02*
X4945D01*
Y1898D01*
X4861D02*
X4945D01*
X4861Y1813D02*
Y1898D01*
X2305Y1813D02*
X2389D01*
Y1898D01*
X2305D02*
X2389D01*
X2305Y1813D02*
Y1898D01*
Y2067D02*
X2389D01*
Y2152D01*
X2305D02*
X2389D01*
X2305Y2067D02*
Y2152D01*
X6371Y2067D02*
X6455D01*
Y2152D01*
X6371D02*
X6455D01*
X6371Y2067D02*
Y2152D01*
Y1813D02*
X6455D01*
Y1898D01*
X6371D02*
X6455D01*
X6371Y1813D02*
Y1898D01*
X3351Y2067D02*
X3435D01*
Y2152D01*
X3351D02*
X3435D01*
X3351Y2067D02*
Y2152D01*
Y1813D02*
X3435D01*
Y1898D01*
X3351D02*
X3435D01*
X3351Y1813D02*
Y1898D01*
X3815Y1813D02*
X3899D01*
Y1898D01*
X3815D02*
X3899D01*
X3815Y1813D02*
Y1898D01*
Y2067D02*
X3899D01*
Y2152D01*
X3815D02*
X3899D01*
X3815Y2067D02*
Y2152D01*
X5848Y1806D02*
X5890Y1827D01*
X5932Y1806D01*
X5911Y1848D02*
X5932Y1806D01*
X5911Y1848D02*
X5932Y1890D01*
X5890Y1869D02*
X5932Y1890D01*
X5848D02*
X5890Y1869D01*
X5848Y1890D02*
X5869Y1848D01*
X5848Y1806D02*
X5869Y1848D01*
X5848Y2060D02*
X5890Y2081D01*
X5932Y2060D01*
X5911Y2102D02*
X5932Y2060D01*
X5911Y2102D02*
X5932Y2144D01*
X5890Y2123D02*
X5932Y2144D01*
X5848D02*
X5890Y2123D01*
X5848Y2144D02*
X5869Y2102D01*
X5848Y2060D02*
X5869Y2102D01*
X4338Y1806D02*
X4380Y1827D01*
X4422Y1806D01*
X4401Y1848D02*
X4422Y1806D01*
X4401Y1848D02*
X4422Y1890D01*
X4380Y1869D02*
X4422Y1890D01*
X4338D02*
X4380Y1869D01*
X4338Y1890D02*
X4359Y1848D01*
X4338Y1806D02*
X4359Y1848D01*
X4338Y2060D02*
X4380Y2081D01*
X4422Y2060D01*
X4401Y2102D02*
X4422Y2060D01*
X4401Y2102D02*
X4422Y2144D01*
X4380Y2123D02*
X4422Y2144D01*
X4338D02*
X4380Y2123D01*
X4338Y2144D02*
X4359Y2102D01*
X4338Y2060D02*
X4359Y2102D01*
X2828Y1806D02*
X2870Y1827D01*
X2912Y1806D01*
X2891Y1848D02*
X2912Y1806D01*
X2891Y1848D02*
X2912Y1890D01*
X2870Y1869D02*
X2912Y1890D01*
X2828D02*
X2870Y1869D01*
X2828Y1890D02*
X2849Y1848D01*
X2828Y1806D02*
X2849Y1848D01*
X2828Y2060D02*
X2870Y2081D01*
X2912Y2060D01*
X2891Y2102D02*
X2912Y2060D01*
X2891Y2102D02*
X2912Y2144D01*
X2870Y2123D02*
X2912Y2144D01*
X2828D02*
X2870Y2123D01*
X2828Y2144D02*
X2849Y2102D01*
X2828Y2060D02*
X2849Y2102D01*
X1318Y1806D02*
X1360Y1827D01*
X1402Y1806D01*
X1381Y1848D02*
X1402Y1806D01*
X1381Y1848D02*
X1402Y1890D01*
X1360Y1869D02*
X1402Y1890D01*
X1318D02*
X1360Y1869D01*
X1318Y1890D02*
X1339Y1848D01*
X1318Y1806D02*
X1339Y1848D01*
X1318Y2060D02*
X1360Y2081D01*
X1402Y2060D01*
X1381Y2102D02*
X1402Y2060D01*
X1381Y2102D02*
X1402Y2144D01*
X1360Y2123D02*
X1402Y2144D01*
X1318D02*
X1360Y2123D01*
X1318Y2144D02*
X1339Y2102D01*
X1318Y2060D02*
X1339Y2102D01*
X279Y279D02*
X300Y258D01*
X258Y279D02*
X279D01*
X258D02*
X279Y300D01*
X258Y321D02*
X279Y300D01*
X258Y321D02*
X279D01*
X300Y342D01*
X321Y321D01*
X342D01*
X321Y300D02*
X342Y321D01*
X321Y300D02*
X342Y279D01*
X321D02*
X342D01*
X300Y258D02*
X321Y279D01*
X279Y6879D02*
X300Y6858D01*
X258Y6879D02*
X279D01*
X258D02*
X279Y6900D01*
X258Y6921D02*
X279Y6900D01*
X258Y6921D02*
X279D01*
X300Y6942D01*
X321Y6921D01*
X342D01*
X321Y6900D02*
X342Y6921D01*
X321Y6900D02*
X342Y6879D01*
X321D02*
X342D01*
X300Y6858D02*
X321Y6879D01*
X3815Y2483D02*
X3899D01*
Y2567D01*
X3815D02*
X3899D01*
X3815Y2483D02*
Y2567D01*
X4861Y2483D02*
X4945D01*
Y2567D01*
X4861D02*
X4945D01*
X4861Y2483D02*
Y2567D01*
X3350Y1393D02*
X3435D01*
Y1477D01*
X3350D02*
X3435D01*
X3350Y1393D02*
Y1477D01*
X2300Y1393D02*
X2385D01*
Y1477D01*
X2300D02*
X2385D01*
X2300Y1393D02*
Y1477D01*
X978Y747D02*
X1062D01*
Y831D01*
X978D02*
X1062D01*
X978Y747D02*
Y831D01*
Y493D02*
X1062D01*
Y577D01*
X978D02*
X1062D01*
X978Y493D02*
Y577D01*
X6493Y747D02*
X6577D01*
Y831D01*
X6493D02*
X6577D01*
X6493Y747D02*
Y831D01*
Y493D02*
X6577D01*
Y577D01*
X6493D02*
X6577D01*
X6493Y493D02*
Y577D01*
X5325Y2483D02*
X5409D01*
Y2567D01*
X5325D02*
X5409D01*
X5325Y2483D02*
Y2567D01*
X6371Y2483D02*
X6455D01*
Y2567D01*
X6371D02*
X6455D01*
X6371Y2483D02*
Y2567D01*
X6370Y1393D02*
X6455D01*
Y1477D01*
X6370D02*
X6455D01*
X6370Y1393D02*
Y1477D01*
X5320Y1393D02*
X5405D01*
Y1477D01*
X5320D02*
X5405D01*
X5320Y1393D02*
Y1477D01*
X4860Y1393D02*
X4945D01*
Y1477D01*
X4860D02*
X4945D01*
X4860Y1393D02*
Y1477D01*
X3810Y1393D02*
X3895D01*
Y1477D01*
X3810D02*
X3895D01*
X3810Y1393D02*
Y1477D01*
X5985Y747D02*
X6070D01*
Y831D01*
X5985D02*
X6070D01*
X5985Y747D02*
Y831D01*
Y493D02*
X6070D01*
Y577D01*
X5985D02*
X6070D01*
X5985Y493D02*
Y577D01*
X2305Y2483D02*
X2389D01*
Y2567D01*
X2305D02*
X2389D01*
X2305Y2483D02*
Y2567D01*
X3351Y2483D02*
X3435D01*
Y2567D01*
X3351D02*
X3435D01*
X3351Y2483D02*
Y2567D01*
X1840Y1393D02*
X1925D01*
Y1477D01*
X1840D02*
X1925D01*
X1840Y1393D02*
Y1477D01*
X790Y1393D02*
X875D01*
Y1477D01*
X790D02*
X875D01*
X790Y1393D02*
Y1477D01*
X795Y2483D02*
X879D01*
Y2567D01*
X795D02*
X879D01*
X795Y2483D02*
Y2567D01*
X1841Y2483D02*
X1925D01*
Y2567D01*
X1841D02*
X1925D01*
X1841Y2483D02*
Y2567D01*
X1735Y3007D02*
X1777Y3092D01*
X1693D02*
X1777D01*
X1693D02*
X1735Y3007D01*
Y4657D02*
X1777Y4742D01*
X1693D02*
X1777D01*
X1693D02*
X1735Y4657D01*
Y5357D02*
X1777Y5442D01*
X1693D02*
X1777D01*
X1693D02*
X1735Y5357D01*
X985Y5007D02*
X1027Y5092D01*
X943D02*
X1027D01*
X943D02*
X985Y5007D01*
Y3007D02*
X1027Y3092D01*
X943D02*
X1027D01*
X943D02*
X985Y3007D01*
X3245D02*
X3287Y3092D01*
X3203D02*
X3287D01*
X3203D02*
X3245Y3007D01*
Y4657D02*
X3287Y4742D01*
X3203D02*
X3287D01*
X3203D02*
X3245Y4657D01*
Y5357D02*
X3287Y5442D01*
X3203D02*
X3287D01*
X3203D02*
X3245Y5357D01*
X2495Y5007D02*
X2537Y5092D01*
X2453D02*
X2537D01*
X2453D02*
X2495Y5007D01*
Y3007D02*
X2537Y3092D01*
X2453D02*
X2537D01*
X2453D02*
X2495Y3007D01*
X6265D02*
X6307Y3092D01*
X6223D02*
X6307D01*
X6223D02*
X6265Y3007D01*
Y4657D02*
X6307Y4742D01*
X6223D02*
X6307D01*
X6223D02*
X6265Y4657D01*
Y5357D02*
X6307Y5442D01*
X6223D02*
X6307D01*
X6223D02*
X6265Y5357D01*
X5515Y5007D02*
X5557Y5092D01*
X5473D02*
X5557D01*
X5473D02*
X5515Y5007D01*
Y3007D02*
X5557Y3092D01*
X5473D02*
X5557D01*
X5473D02*
X5515Y3007D01*
X4755D02*
X4797Y3092D01*
X4713D02*
X4797D01*
X4713D02*
X4755Y3007D01*
Y4657D02*
X4797Y4742D01*
X4713D02*
X4797D01*
X4713D02*
X4755Y4657D01*
Y5357D02*
X4797Y5442D01*
X4713D02*
X4797D01*
X4713D02*
X4755Y5357D01*
X4005Y5007D02*
X4047Y5092D01*
X3963D02*
X4047D01*
X3963D02*
X4005Y5007D01*
Y3007D02*
X4047Y3092D01*
X3963D02*
X4047D01*
X3963D02*
X4005Y3007D01*
X7179Y279D02*
X7200Y258D01*
X7158Y279D02*
X7179D01*
X7158D02*
X7179Y300D01*
X7158Y321D02*
X7179Y300D01*
X7158Y321D02*
X7179D01*
X7200Y342D01*
X7221Y321D01*
X7242D01*
X7221Y300D02*
X7242Y321D01*
X7221Y300D02*
X7242Y279D01*
X7221D02*
X7242D01*
X7200Y258D02*
X7221Y279D01*
X7179Y6879D02*
X7200Y6858D01*
X7158Y6879D02*
X7179D01*
X7158D02*
X7179Y6900D01*
X7158Y6921D02*
X7179Y6900D01*
X7158Y6921D02*
X7179D01*
X7200Y6942D01*
X7221Y6921D01*
X7242D01*
X7221Y6900D02*
X7242Y6921D01*
X7221Y6900D02*
X7242Y6879D01*
X7221D02*
X7242D01*
X7200Y6858D02*
X7221Y6879D01*
D44*
X-1096Y-2018D02*
X8756D01*
X-1096Y-3923D02*
X8756D01*
X-1096Y-4304D02*
X8756D01*
Y-1637D01*
X-1096D02*
X8756D01*
X-1096Y-4304D02*
Y-1637D01*
X6778Y-4304D02*
Y-1637D01*
X5493Y-4304D02*
Y-1637D01*
X2075Y-4304D02*
Y-1637D01*
X303Y-4304D02*
Y-1637D01*
D45*
X6892Y-1721D02*
Y-1904D01*
Y-1813D01*
X7014D01*
Y-1721D01*
Y-1904D01*
X7106D02*
X7167D01*
X7197Y-1874D01*
Y-1813D01*
X7167Y-1782D01*
X7106D01*
X7075Y-1813D01*
Y-1874D01*
X7106Y-1904D01*
X7258D02*
X7319D01*
X7289D01*
Y-1721D01*
X7258D01*
X7502Y-1904D02*
X7441D01*
X7410Y-1874D01*
Y-1813D01*
X7441Y-1782D01*
X7502D01*
X7532Y-1813D01*
Y-1843D01*
X7410D01*
X7776Y-1721D02*
X7898D01*
X7837D01*
Y-1904D01*
X7959Y-1782D02*
Y-1874D01*
X7989Y-1904D01*
X8081D01*
Y-1934D01*
X8050Y-1965D01*
X8020D01*
X8081Y-1904D02*
Y-1782D01*
X8142Y-1965D02*
Y-1782D01*
X8233D01*
X8264Y-1813D01*
Y-1874D01*
X8233Y-1904D01*
X8142D01*
X8416D02*
X8355D01*
X8325Y-1874D01*
Y-1813D01*
X8355Y-1782D01*
X8416D01*
X8446Y-1813D01*
Y-1843D01*
X8325D01*
X5608Y-1904D02*
Y-1721D01*
X5699D01*
X5729Y-1752D01*
Y-1813D01*
X5699Y-1843D01*
X5608D01*
X5790Y-1904D02*
X5851D01*
X5821D01*
Y-1721D01*
X5790D01*
X5973Y-1782D02*
X6034D01*
X6065Y-1813D01*
Y-1904D01*
X5973D01*
X5943Y-1874D01*
X5973Y-1843D01*
X6065D01*
X6156Y-1752D02*
Y-1782D01*
X6125D01*
X6186D01*
X6156D01*
Y-1874D01*
X6186Y-1904D01*
X6369D02*
X6308D01*
X6278Y-1874D01*
Y-1813D01*
X6308Y-1782D01*
X6369D01*
X6400Y-1813D01*
Y-1843D01*
X6278D01*
X6583Y-1721D02*
Y-1904D01*
X6491D01*
X6461Y-1874D01*
Y-1813D01*
X6491Y-1782D01*
X6583D01*
X2312Y-1721D02*
X2190D01*
Y-1813D01*
X2251D01*
X2190D01*
Y-1904D01*
X2372D02*
X2433D01*
X2403D01*
Y-1782D01*
X2372D01*
X2525Y-1904D02*
Y-1782D01*
X2616D01*
X2647Y-1813D01*
Y-1904D01*
X2708D02*
X2769D01*
X2738D01*
Y-1782D01*
X2708D01*
X2860Y-1904D02*
X2951D01*
X2982Y-1874D01*
X2951Y-1843D01*
X2890D01*
X2860Y-1813D01*
X2890Y-1782D01*
X2982D01*
X3043Y-1721D02*
Y-1904D01*
Y-1813D01*
X3073Y-1782D01*
X3134D01*
X3165Y-1813D01*
Y-1904D01*
X3317D02*
X3256D01*
X3226Y-1874D01*
Y-1813D01*
X3256Y-1782D01*
X3317D01*
X3348Y-1813D01*
Y-1843D01*
X3226D01*
X3530Y-1721D02*
Y-1904D01*
X3439D01*
X3408Y-1874D01*
Y-1813D01*
X3439Y-1782D01*
X3530D01*
X3774Y-1721D02*
Y-1904D01*
Y-1813D01*
X3896D01*
Y-1721D01*
Y-1904D01*
X3987D02*
X4048D01*
X4079Y-1874D01*
Y-1813D01*
X4048Y-1782D01*
X3987D01*
X3957Y-1813D01*
Y-1874D01*
X3987Y-1904D01*
X4140D02*
X4201D01*
X4170D01*
Y-1721D01*
X4140D01*
X4384Y-1904D02*
X4323D01*
X4292Y-1874D01*
Y-1813D01*
X4323Y-1782D01*
X4384D01*
X4414Y-1813D01*
Y-1843D01*
X4292D01*
X4780Y-1752D02*
X4749Y-1721D01*
X4688D01*
X4658Y-1752D01*
Y-1782D01*
X4688Y-1813D01*
X4749D01*
X4780Y-1843D01*
Y-1874D01*
X4749Y-1904D01*
X4688D01*
X4658Y-1874D01*
X4841Y-1904D02*
X4902D01*
X4871D01*
Y-1782D01*
X4841D01*
X4993D02*
X5115D01*
X4993Y-1904D01*
X5115D01*
X5267D02*
X5206D01*
X5176Y-1874D01*
Y-1813D01*
X5206Y-1782D01*
X5267D01*
X5298Y-1813D01*
Y-1843D01*
X5176D01*
X417Y-1721D02*
Y-1904D01*
Y-1813D01*
X539D01*
Y-1721D01*
Y-1904D01*
X600D02*
X661D01*
X631D01*
Y-1782D01*
X600D01*
X783Y-1752D02*
Y-1782D01*
X752D01*
X813D01*
X783D01*
Y-1874D01*
X813Y-1904D01*
X1209Y-1752D02*
X1179Y-1721D01*
X1118D01*
X1088Y-1752D01*
Y-1874D01*
X1118Y-1904D01*
X1179D01*
X1209Y-1874D01*
X1301Y-1904D02*
X1362D01*
X1392Y-1874D01*
Y-1813D01*
X1362Y-1782D01*
X1301D01*
X1270Y-1813D01*
Y-1874D01*
X1301Y-1904D01*
X1453Y-1782D02*
Y-1874D01*
X1484Y-1904D01*
X1575D01*
Y-1782D01*
X1636Y-1904D02*
Y-1782D01*
X1727D01*
X1758Y-1813D01*
Y-1904D01*
X1849Y-1752D02*
Y-1782D01*
X1819D01*
X1880D01*
X1849D01*
Y-1874D01*
X1880Y-1904D01*
X-746Y-1752D02*
X-776Y-1721D01*
X-837D01*
X-868Y-1752D01*
Y-1782D01*
X-837Y-1813D01*
X-776D01*
X-746Y-1843D01*
Y-1874D01*
X-776Y-1904D01*
X-837D01*
X-868Y-1874D01*
X-685Y-1782D02*
Y-1874D01*
X-654Y-1904D01*
X-563D01*
Y-1934D01*
X-593Y-1965D01*
X-624D01*
X-563Y-1904D02*
Y-1782D01*
X-502Y-1904D02*
Y-1782D01*
X-472D01*
X-441Y-1813D01*
Y-1904D01*
Y-1813D01*
X-411Y-1782D01*
X-380Y-1813D01*
Y-1904D01*
X-319Y-1721D02*
Y-1904D01*
X-228D01*
X-197Y-1874D01*
Y-1843D01*
Y-1813D01*
X-228Y-1782D01*
X-319D01*
X-106Y-1904D02*
X-45D01*
X-15Y-1874D01*
Y-1813D01*
X-45Y-1782D01*
X-106D01*
X-136Y-1813D01*
Y-1874D01*
X-106Y-1904D01*
X46D02*
X107D01*
X77D01*
Y-1721D01*
X46D01*
M02*
