%FSLAX42Y42*%
%MOMM*%
G71*
G01*
G75*
%ADD10C,0.25*%
%ADD11C,2.00*%
%ADD12R,5.00X5.00*%
%ADD13C,3.00*%
%ADD14R,3.00X3.00*%
%ADD15C,3.50*%
%ADD16R,3.50X3.50*%
%ADD17C,2.00*%
%ADD18R,2.00X2.00*%
%ADD19R,2.00X1.60*%
%ADD20O,2.00X1.60*%
%ADD21R,2.00X2.00*%
%ADD22C,1.00*%
%ADD23C,0.60*%
%ADD24C,0.70*%
%ADD25C,0.80*%
%ADD26C,2.50*%
%ADD27R,0.95X1.00*%
%ADD28R,1.65X1.15*%
%ADD29C,0.25*%
%ADD30C,0.15*%
%ADD31C,0.15*%
%ADD32C,0.30*%
%ADD33R,5.20X5.20*%
%ADD34C,3.20*%
%ADD35R,3.20X3.20*%
%ADD36C,3.70*%
%ADD37R,3.70X3.70*%
%ADD38C,2.20*%
%ADD39R,2.20X2.20*%
%ADD40R,2.20X1.80*%
%ADD41O,2.20X1.80*%
%ADD42R,2.20X2.20*%
%ADD43C,0.08*%
%ADD44C,0.38*%
%ADD45C,0.41*%
%ADD46C,0.13*%
D10*
X7500Y-525D02*
Y-475D01*
X-0Y-525D02*
Y-475D01*
X7348Y-551D02*
X7500Y-500D01*
X7348Y-449D02*
X7500Y-500D01*
X-0Y-500D02*
X152Y-551D01*
X-0Y-500D02*
X152Y-449D01*
X4260Y-500D02*
X7500Y-500D01*
X-0Y-500D02*
X3240Y-500D01*
X7925Y7200D02*
X7975D01*
X7925Y0D02*
X7975D01*
X7950Y7200D02*
X8001Y7048D01*
X7899D02*
X7950Y7200D01*
Y0D02*
X8001Y152D01*
X7899D02*
X7950Y0D01*
Y4110D02*
Y7200D01*
Y0D02*
Y3090D01*
D30*
X3265Y-439D02*
X3367D01*
Y-464D01*
X3265Y-566D01*
Y-591D01*
X3519Y-439D02*
X3417D01*
Y-515D01*
X3468Y-490D01*
X3494D01*
X3519Y-515D01*
Y-566D01*
X3494Y-591D01*
X3443D01*
X3417Y-566D01*
X3773Y-591D02*
X3722Y-541D01*
Y-490D01*
X3773Y-439D01*
X3849Y-591D02*
Y-490D01*
X3874D01*
X3900Y-515D01*
Y-591D01*
Y-515D01*
X3925Y-490D01*
X3951Y-515D01*
Y-591D01*
X4001D02*
Y-490D01*
X4027D01*
X4052Y-515D01*
Y-591D01*
Y-515D01*
X4078Y-490D01*
X4103Y-515D01*
Y-591D01*
X4154D02*
X4205Y-541D01*
Y-490D01*
X4154Y-439D01*
X7889Y3115D02*
Y3217D01*
X7914D01*
X8016Y3115D01*
X8041D01*
Y3369D02*
Y3267D01*
X7940Y3369D01*
X7914D01*
X7889Y3344D01*
Y3293D01*
X7914Y3267D01*
X8041Y3623D02*
X7991Y3572D01*
X7940D01*
X7889Y3623D01*
X8041Y3699D02*
X7940D01*
Y3724D01*
X7965Y3750D01*
X8041D01*
X7965D01*
X7940Y3775D01*
X7965Y3801D01*
X8041D01*
Y3851D02*
X7940D01*
Y3877D01*
X7965Y3902D01*
X8041D01*
X7965D01*
X7940Y3928D01*
X7965Y3953D01*
X8041D01*
Y4004D02*
X7991Y4055D01*
X7940D01*
X7889Y4004D01*
D46*
X7050Y6900D02*
X7350D01*
X7200Y6750D02*
Y7050D01*
X7050Y300D02*
X7350D01*
X7200Y150D02*
Y450D01*
X4974Y6493D02*
X5124D01*
X5049Y6418D02*
Y6568D01*
X3958Y6493D02*
X4108D01*
X4033Y6418D02*
Y6568D01*
X4466Y6493D02*
X4616D01*
X4541Y6418D02*
Y6568D01*
X3925Y3050D02*
X4085D01*
X4005Y2970D02*
Y3130D01*
X3925Y5050D02*
X4085D01*
X4005Y4970D02*
Y5130D01*
X4675Y5400D02*
X4835D01*
X4755Y5320D02*
Y5480D01*
X4675Y4700D02*
X4835D01*
X4755Y4620D02*
Y4780D01*
X4675Y3050D02*
X4835D01*
X4755Y2970D02*
Y3130D01*
X5435Y3050D02*
X5595D01*
X5515Y2970D02*
Y3130D01*
X5435Y5050D02*
X5595D01*
X5515Y4970D02*
Y5130D01*
X6185Y5400D02*
X6345D01*
X6265Y5320D02*
Y5480D01*
X6185Y4700D02*
X6345D01*
X6265Y4620D02*
Y4780D01*
X6185Y3050D02*
X6345D01*
X6265Y2970D02*
Y3130D01*
X2415Y3050D02*
X2575D01*
X2495Y2970D02*
Y3130D01*
X2415Y5050D02*
X2575D01*
X2495Y4970D02*
Y5130D01*
X3165Y5400D02*
X3325D01*
X3245Y5320D02*
Y5480D01*
X3165Y4700D02*
X3325D01*
X3245Y4620D02*
Y4780D01*
X3165Y3050D02*
X3325D01*
X3245Y2970D02*
Y3130D01*
X905Y3050D02*
X1065D01*
X985Y2970D02*
Y3130D01*
X905Y5050D02*
X1065D01*
X985Y4970D02*
Y5130D01*
X1655Y5400D02*
X1815D01*
X1735Y5320D02*
Y5480D01*
X1655Y4700D02*
X1815D01*
X1735Y4620D02*
Y4780D01*
X1655Y3050D02*
X1815D01*
X1735Y2970D02*
Y3130D01*
X3450Y6493D02*
X3600D01*
X3525Y6418D02*
Y6568D01*
X2434Y6493D02*
X2584D01*
X2509Y6418D02*
Y6568D01*
X2942Y6493D02*
X3092D01*
X3017Y6418D02*
Y6568D01*
X1833Y2525D02*
X1933D01*
X1883Y2475D02*
Y2575D01*
X787Y2525D02*
X887D01*
X837Y2475D02*
Y2575D01*
X782Y1435D02*
X882D01*
X832Y1385D02*
Y1485D01*
X1832Y1435D02*
X1932D01*
X1882Y1385D02*
Y1485D01*
X3343Y2525D02*
X3443D01*
X3393Y2475D02*
Y2575D01*
X2297Y2525D02*
X2397D01*
X2347Y2475D02*
Y2575D01*
X5977Y535D02*
X6077D01*
X6027Y485D02*
Y585D01*
X5977Y789D02*
X6077D01*
X6027Y739D02*
Y839D01*
X3802Y1435D02*
X3902D01*
X3852Y1385D02*
Y1485D01*
X4852Y1435D02*
X4952D01*
X4902Y1385D02*
Y1485D01*
X5312Y1435D02*
X5412D01*
X5362Y1385D02*
Y1485D01*
X6362Y1435D02*
X6462D01*
X6412Y1385D02*
Y1485D01*
X6363Y2525D02*
X6463D01*
X6413Y2475D02*
Y2575D01*
X5317Y2525D02*
X5417D01*
X5367Y2475D02*
Y2575D01*
X6485Y535D02*
X6585D01*
X6535Y485D02*
Y585D01*
X6485Y789D02*
X6585D01*
X6535Y739D02*
Y839D01*
X970Y535D02*
X1070D01*
X1020Y485D02*
Y585D01*
X970Y789D02*
X1070D01*
X1020Y739D02*
Y839D01*
X2292Y1435D02*
X2392D01*
X2342Y1385D02*
Y1485D01*
X3342Y1435D02*
X3442D01*
X3392Y1385D02*
Y1485D01*
X4853Y2525D02*
X4953D01*
X4903Y2475D02*
Y2575D01*
X3807Y2525D02*
X3907D01*
X3857Y2475D02*
Y2575D01*
X150Y6900D02*
X450D01*
X300Y6750D02*
Y7050D01*
X150Y300D02*
X450D01*
X300Y150D02*
Y450D01*
X5328Y710D02*
X5478D01*
X5403Y635D02*
Y785D01*
X4820Y710D02*
X4970D01*
X4895Y635D02*
Y785D01*
X4312Y710D02*
X4462D01*
X4387Y635D02*
Y785D01*
X3804Y710D02*
X3954D01*
X3879Y635D02*
Y785D01*
X3296Y710D02*
X3446D01*
X3371Y635D02*
Y785D01*
X2788Y710D02*
X2938D01*
X2863Y635D02*
Y785D01*
X1772Y710D02*
X1922D01*
X1847Y635D02*
Y785D01*
X2280Y710D02*
X2430D01*
X2355Y635D02*
Y785D01*
X1320Y2102D02*
X1400D01*
X1360Y2062D02*
Y2142D01*
X1320Y1848D02*
X1400D01*
X1360Y1808D02*
Y1888D01*
X2830Y2102D02*
X2910D01*
X2870Y2062D02*
Y2142D01*
X2830Y1848D02*
X2910D01*
X2870Y1808D02*
Y1888D01*
X4340Y2102D02*
X4420D01*
X4380Y2062D02*
Y2142D01*
X4340Y1848D02*
X4420D01*
X4380Y1808D02*
Y1888D01*
X5850Y2102D02*
X5930D01*
X5890Y2062D02*
Y2142D01*
X5850Y1848D02*
X5930D01*
X5890Y1808D02*
Y1888D01*
X1926Y6493D02*
X2076D01*
X2001Y6418D02*
Y6568D01*
X910Y6493D02*
X1060D01*
X985Y6418D02*
Y6568D01*
X1418Y6493D02*
X1568D01*
X1493Y6418D02*
Y6568D01*
X6498Y6493D02*
X6648D01*
X6573Y6418D02*
Y6568D01*
X5482Y6493D02*
X5632D01*
X5557Y6418D02*
Y6568D01*
X5990Y6493D02*
X6140D01*
X6065Y6418D02*
Y6568D01*
X3807Y2110D02*
X3907D01*
X3857Y2060D02*
Y2160D01*
X3807Y1856D02*
X3907D01*
X3857Y1806D02*
Y1906D01*
X3343Y1856D02*
X3443D01*
X3393Y1806D02*
Y1906D01*
X3343Y2110D02*
X3443D01*
X3393Y2060D02*
Y2160D01*
X6363Y1856D02*
X6463D01*
X6413Y1806D02*
Y1906D01*
X6363Y2110D02*
X6463D01*
X6413Y2060D02*
Y2160D01*
X2297Y2110D02*
X2397D01*
X2347Y2060D02*
Y2160D01*
X2297Y1856D02*
X2397D01*
X2347Y1806D02*
Y1906D01*
X4853Y1856D02*
X4953D01*
X4903Y1806D02*
Y1906D01*
X4853Y2110D02*
X4953D01*
X4903Y2060D02*
Y2160D01*
X1833Y1856D02*
X1933D01*
X1883Y1806D02*
Y1906D01*
X1833Y2110D02*
X1933D01*
X1883Y2060D02*
Y2160D01*
X787Y2110D02*
X887D01*
X837Y2060D02*
Y2160D01*
X787Y1856D02*
X887D01*
X837Y1806D02*
Y1906D01*
X5317Y2110D02*
X5417D01*
X5367Y2060D02*
Y2160D01*
X5317Y1856D02*
X5417D01*
X5367Y1806D02*
Y1906D01*
M02*
