M48
;Layer_Color=9474304
;FILE_FORMAT=4:2
METRIC,LZ
;TYPE=PLATED
T1F00S00C0.80
T2F00S00C1.00
T3F00S00C1.50
T4F00S00C1.60
T5F00S00C3.00
%
T01
X00287Y001848
X00438
X00589
X00136
Y002102
X00287
X00438
X00589
T02
X003392Y001435
X003393Y001856
X003857
X003852Y001435
X004902
X004903Y001856
X005367
X005362Y001435
X006412
X006413Y001856
X006535Y000789
Y000535
X006027
Y000789
X002342Y001435
X002347Y001856
X001883
X001882Y001435
X000832
X000837Y001856
X00102Y000789
Y000535
X000837Y00211
Y002525
X001883
Y00211
X002347
Y002525
X003393
Y00211
X003857
Y002525
X004903
Y00211
X005367
Y002525
X006413
Y00211
T03
X002863Y00071
X003371
X003879
X004387
X004895
X005403
X002355
X001847
X003017Y006493
X003525
X004033
X004541
X005049
X005557
X006065
X006573
X002509
X002001
X001493
X000985
T04
X000985Y00305
X001735
X002495
Y00505
X001735Y0054
Y0047
X000985Y00505
X003245Y0054
Y0047
X004005Y00505
X004755Y0054
Y0047
X005515Y00505
X006265Y0054
Y0047
Y00305
X005515
X004755
X004005
X003245
T05
X0072Y0003
X0003
X0072Y0069
X0003
M30
