%FSLAX42Y42*%
%MOMM*%
G71*
G01*
G75*
G04 Layer_Color=16711935*
%ADD10C,0.25*%
%ADD11C,2.00*%
%ADD12R,5.00X5.00*%
%ADD13C,3.00*%
%ADD14R,3.00X3.00*%
%ADD15C,3.50*%
%ADD16R,3.50X3.50*%
%ADD17C,2.00*%
%ADD18R,2.00X2.00*%
%ADD19R,2.00X1.60*%
%ADD20O,2.00X1.60*%
%ADD21R,2.00X2.00*%
%ADD22C,1.00*%
%ADD23C,0.60*%
%ADD24C,0.70*%
%ADD25C,0.80*%
%ADD26C,2.50*%
%ADD27R,0.95X1.00*%
%ADD28R,1.65X1.15*%
%ADD29C,0.25*%
%ADD30C,0.15*%
%ADD31C,0.15*%
%ADD32C,0.30*%
%ADD33R,5.20X5.20*%
%ADD34C,3.20*%
%ADD35R,3.20X3.20*%
%ADD36C,3.70*%
%ADD37R,3.70X3.70*%
%ADD38C,2.20*%
%ADD39R,2.20X2.20*%
%ADD40R,2.20X1.80*%
%ADD41O,2.20X1.80*%
%ADD42R,2.20X2.20*%
D33*
X7200Y6900D02*
D03*
Y300D02*
D03*
X300Y6900D02*
D03*
Y300D02*
D03*
D34*
X5049Y6493D02*
D03*
X4541D02*
D03*
X3525D02*
D03*
X3017D02*
D03*
X5403Y710D02*
D03*
X4895D02*
D03*
X4387D02*
D03*
X3879D02*
D03*
X3371D02*
D03*
X2863D02*
D03*
X2355D02*
D03*
X2001Y6493D02*
D03*
X1493D02*
D03*
X6573D02*
D03*
X6065D02*
D03*
D35*
X4033D02*
D03*
X2509D02*
D03*
X1847Y710D02*
D03*
X985Y6493D02*
D03*
X5557D02*
D03*
D36*
X4005Y3050D02*
D03*
Y5050D02*
D03*
X4755Y5400D02*
D03*
Y4700D02*
D03*
X5515Y3050D02*
D03*
Y5050D02*
D03*
X6265Y5400D02*
D03*
Y4700D02*
D03*
X2495Y3050D02*
D03*
Y5050D02*
D03*
X3245Y5400D02*
D03*
Y4700D02*
D03*
X985Y3050D02*
D03*
Y5050D02*
D03*
X1735Y5400D02*
D03*
Y4700D02*
D03*
D37*
X4755Y3050D02*
D03*
X6265D02*
D03*
X3245D02*
D03*
X1735D02*
D03*
D38*
X1883Y2525D02*
D03*
X1882Y1435D02*
D03*
X3393Y2525D02*
D03*
X4902Y1435D02*
D03*
X6412D02*
D03*
X6413Y2525D02*
D03*
X3392Y1435D02*
D03*
X4903Y2525D02*
D03*
X1360Y2102D02*
D03*
X2870D02*
D03*
X4380D02*
D03*
X5890D02*
D03*
D39*
X837Y2525D02*
D03*
X832Y1435D02*
D03*
X2347Y2525D02*
D03*
X3852Y1435D02*
D03*
X5362D02*
D03*
X5367Y2525D02*
D03*
X2342Y1435D02*
D03*
X3857Y2525D02*
D03*
D40*
X6027Y535D02*
D03*
X6535D02*
D03*
X1020D02*
D03*
X3857Y1856D02*
D03*
X3393Y2110D02*
D03*
X6413D02*
D03*
X2347Y1856D02*
D03*
X4903Y2110D02*
D03*
X1883D02*
D03*
X837Y1856D02*
D03*
X5367D02*
D03*
D41*
X6027Y789D02*
D03*
X6535D02*
D03*
X1020D02*
D03*
X3857Y2110D02*
D03*
X3393Y1856D02*
D03*
X6413D02*
D03*
X2347Y2110D02*
D03*
X4903Y1856D02*
D03*
X1883D02*
D03*
X837Y2110D02*
D03*
X5367D02*
D03*
D42*
X1360Y1848D02*
D03*
X2870D02*
D03*
X4380D02*
D03*
X5890D02*
D03*
M02*
